HIERARCHY
ROOT Hips
{
	OFFSET 0.00000 0.00000 0.00000
	CHANNELS 6 Xposition Yposition Zposition Zrotation Yrotation Xrotation 
	JOINT LHipJoint
	{
		OFFSET 0 0 0
		CHANNELS 3 Zrotation Yrotation Xrotation
		JOINT LeftHip
		{
			OFFSET 1.46561 -1.72757 0.83774
			CHANNELS 3 Zrotation Yrotation Xrotation
			JOINT LeftKnee
			{
				OFFSET 2.48915 -6.83890 0.00000
				CHANNELS 3 Zrotation Yrotation Xrotation
				JOINT LeftAnkle
				{
					OFFSET 2.60555 -7.15868 0.00000
					CHANNELS 3 Zrotation Yrotation Xrotation
					JOINT LeftToe
					{
						OFFSET 0.19248 -0.52884 2.26738
						CHANNELS 3 Zrotation Yrotation Xrotation
						End Site
						{
							OFFSET 0.00000 -0.00000 1.17015
						}
					}
				}
			}
		}
	}
	JOINT RHipJoint
	{
		OFFSET 0 0 0
		CHANNELS 3 Zrotation Yrotation Xrotation
		JOINT RightHip
		{
			OFFSET -1.46918 -1.72757 0.83774
			CHANNELS 3 Zrotation Yrotation Xrotation
			JOINT RightKnee
			{
				OFFSET -2.49034 -6.84216 0.00000
				CHANNELS 3 Zrotation Yrotation Xrotation
				JOINT RightAnkle
				{
					OFFSET -2.65971 -7.30750 0.00000
					CHANNELS 3 Zrotation Yrotation Xrotation
					JOINT RightToe
					{
						OFFSET -0.19227 -0.52827 2.30785
						CHANNELS 3 Zrotation Yrotation Xrotation
						End Site
						{
							OFFSET -0.00000 -0.00000 1.18972
						}
					}
				}
			}
		}
	}
	JOINT lowerback
	{
		OFFSET 0 0 0
		CHANNELS 3 Zrotation Yrotation Xrotation
		JOINT Chest
		{
			OFFSET 0.02432 2.19909 -0.28000
			CHANNELS 3 Zrotation Yrotation Xrotation
			JOINT Chest2
			{
				OFFSET 0.03714 2.21816 -0.15261
				CHANNELS 3 Zrotation Yrotation Xrotation
				JOINT lowerneck
				{
					OFFSET 0 0 0
					CHANNELS 3 Zrotation Yrotation Xrotation
					JOINT Neck
					{
						OFFSET -0.01896 1.56165 0.21681
						CHANNELS 3 Zrotation Yrotation Xrotation
						JOINT Head
						{
							OFFSET 0.02744 1.56009 0.06764
							CHANNELS 3 Zrotation Yrotation Xrotation
							End Site
							{
								OFFSET 0.01212 1.60574 0.00298
							}
						}
					}
				}
				JOINT LeftCollar
				{
					OFFSET 0 0 0
					CHANNELS 3 Zrotation Yrotation Xrotation
					JOINT LeftShoulder
					{
						OFFSET 3.05595 1.48048 -0.60794
CHANNELS 3 Zrotation Xrotation Yrotation
						JOINT LeftElbow
						{
OFFSET 0 -5.206070 -0.000000
CHANNELS 3 Zrotation Xrotation Yrotation
							JOINT LeftWrist
							{
OFFSET 0 -3.399610 0.000000
CHANNELS 3 Zrotation Xrotation Yrotation
								JOINT lhand
								{
									OFFSET 0 0 0
CHANNELS 3 Zrotation Xrotation Yrotation
									JOINT LFingers
									{
OFFSET 0 -0.519690 0.000000
CHANNELS 3 Zrotation Xrotation Yrotation
										End Site
										{
OFFSET 0 -0.418990 0.000000
										}
									}
								}
								JOINT LThumb
								{
OFFSET 0 0.000000 0.000000
CHANNELS 3 Zrotation Xrotation Yrotation
									End Site
									{
OFFSET 0 -0.425390 0.425390
									}
								}
							}
						}
					}
				}
				JOINT RightCollar
				{
					OFFSET 0 0 0
					CHANNELS 3 Zrotation Yrotation Xrotation
					JOINT RightShoulder
					{
						OFFSET -2.99052 1.57608 -0.69102
CHANNELS 3 Zrotation Xrotation Yrotation
						JOINT RightElbow
						{
OFFSET 0 -5.322140 0.000000
CHANNELS 3 Zrotation Xrotation Yrotation
							JOINT RightWrist
							{
OFFSET 0 -3.512080 0.000000
CHANNELS 3 Zrotation Xrotation Yrotation
								JOINT rhand
								{
									OFFSET 0 0 0
CHANNELS 3 Zrotation Xrotation Yrotation
									JOINT RFingers
									{
OFFSET 0 -0.586680 0.000000
CHANNELS 3 Zrotation Xrotation Yrotation
										End Site
										{
OFFSET 0 -0.473000 0.000000
										}
									}
								}
								JOINT RThumb
								{
OFFSET 0 0.000000 0.000000
CHANNELS 3 Zrotation Xrotation Yrotation
									End Site
									{
OFFSET 0 -0.480220 0.480220
									}
								}
							}
						}
					}
				}
			}
		}
	}
}
MOTION
Frames: 6
Frame Time: 0.008333333333333333
-0.088241 20.044210 -11.304885 1.411643 4.686911 14.025402 0.000000 0.000000 0.000000 -16.927987 1.926307 -24.671646 2.143982 9.157763 26.291498 2.519644 5.878149 28.802082 0.014690 0.711070 1.954347 0.000000 0.000000 0.000000 16.192839 -2.455406 -17.139242 -1.178499 -6.884938 19.376960 -0.187328 -19.023663 15.006891 -1.307096 -7.203271 20.335932 -3.627203 -0.924367 7.775144 2.121198 -1.441974 3.876248 4.346293 -0.786651 -0.196550 -1.860070 -0.823725 -12.936978 0.623123 -0.865802 22.944039 0.426955 -0.491080 9.369135 0.000000 0.000000 0.000000 24.929714 38.021918 -51.079140 114.564679 -57.592220 81.101637 37.685524 -57.312136 14.374757 0.000000 0.000000 0.000000 -7.125000 0.000000 0.000000 6.791843 12.129804 5.251589 0.000000 0.000000 0.000000 -18.135004 28.513514 32.404156 -106.791579 -58.906073 -74.488390 -29.338216 30.512100 24.912102 0.000000 0.000000 0.000000 7.125000 0.000000 0.000000 0.234327 58.027093 -0.074558
-0.093137 20.425370 -11.148287 1.194867 5.001678 14.363964 0.000000 0.000000 0.000000 -16.402765 1.278193 -24.567590 2.023565 8.914751 25.529219 2.724961 6.765676 29.915564 0.043945 1.335901 3.673657 0.000000 0.000000 0.000000 16.570167 -2.473904 -16.864967 -1.056036 -6.533376 18.340311 -0.051342 -21.960652 15.873231 -1.799329 -8.423849 24.015733 -3.609301 -1.102793 6.445598 2.198030 -1.640495 3.823571 4.394527 -0.902314 0.506511 -1.830849 -0.839146 -12.613183 0.771244 -0.939187 23.457660 0.465981 -0.508575 9.489493 0.000000 0.000000 0.000000 25.247806 39.573200 -51.684714 113.758694 -57.754983 80.420451 38.446888 -56.719147 14.416468 0.000000 0.000000 0.000000 -7.125000 0.000000 0.000000 7.282216 11.919293 5.668677 0.000000 0.000000 0.000000 -17.905519 29.169546 32.255374 -105.227383 -59.103402 -73.147370 -29.127916 30.193935 24.784894 0.000000 0.000000 0.000000 7.125000 0.000000 0.000000 0.433880 57.839850 -0.136187
-0.098161 20.793993 -11.014369 0.977720 5.299604 14.721839 0.000000 0.000000 0.000000 -15.886881 0.567906 -24.912042 2.026496 8.921031 25.548679 2.804565 7.091674 30.340227 0.074324 1.755285 4.829915 0.000000 0.000000 0.000000 17.026531 -2.741580 -17.314725 -1.064068 -6.557991 18.412302 0.010836 -23.307702 16.359844 -2.086573 -9.042452 25.929463 -3.583897 -1.268390 5.363888 2.270126 -1.830209 3.771092 4.434507 -1.010065 1.074111 -1.800309 -0.865056 -12.404726 0.904873 -1.022338 23.895022 0.498422 -0.531293 9.605660 0.000000 0.000000 0.000000 25.195885 40.881076 -51.977130 112.283791 -58.036773 79.171002 39.091449 -56.452630 14.396232 0.000000 0.000000 0.000000 -7.125000 0.000000 0.000000 7.705226 11.804902 6.022084 0.000000 0.000000 0.000000 -17.453308 29.503330 31.890963 -103.081343 -59.341358 -71.303547 -28.775863 29.886815 24.793536 0.000000 0.000000 0.000000 7.125000 0.000000 0.000000 0.834262 57.767358 -0.260708
-0.102986 21.147073 -10.904115 0.786948 5.536531 15.019655 0.000000 0.000000 0.000000 -15.420146 -0.136946 -25.581644 2.132557 9.136803 26.224117 2.839109 7.028900 30.541756 0.097336 2.012001 5.538768 0.000000 0.000000 0.000000 17.495031 -3.166116 -18.288296 -1.183116 -6.903189 19.428729 -0.060744 -23.405099 16.930577 -2.177796 -9.226993 26.508019 -3.567843 -1.407204 4.617765 2.320860 -1.994828 3.739883 4.462124 -1.101539 1.475882 -1.751450 -0.887935 -12.289807 1.002030 -1.095192 24.254176 0.516154 -0.550944 9.712192 0.000000 0.000000 0.000000 24.748540 41.913274 -51.900151 110.164807 -58.406392 77.369848 39.493415 -56.691025 14.346651 0.000000 0.000000 0.000000 -7.125000 0.000000 0.000000 7.974869 11.777653 6.241508 0.000000 0.000000 0.000000 -16.787217 29.497430 31.330601 -100.328053 -59.592962 -68.932110 -28.372487 29.641294 24.894182 0.000000 0.000000 0.000000 7.125000 0.000000 0.000000 1.320662 57.782831 -0.413249
-0.106819 21.482441 -10.818934 0.643629 5.649320 15.161824 0.000000 0.000000 0.000000 -15.058917 -0.718067 -26.446336 2.331717 9.523896 27.449362 2.879059 6.760162 30.794122 0.121892 2.249194 6.194818 0.000000 0.000000 0.000000 17.887891 -3.577373 -19.547857 -1.411512 -7.510317 21.238104 -0.257538 -22.719821 17.831641 -2.161893 -9.195386 26.408392 -3.577300 -1.498261 4.314639 2.336490 -2.108481 3.760369 4.476650 -1.164006 1.679301 -1.688255 -0.889588 -12.268568 1.050880 -1.127789 24.545865 0.518996 -0.555472 9.812356 0.000000 0.000000 0.000000 23.909130 42.583199 -51.423186 107.338324 -58.828628 74.956005 39.505996 -57.620931 14.386889 0.000000 0.000000 0.000000 -7.125000 0.000000 0.000000 7.976073 11.725246 6.251140 0.000000 0.000000 0.000000 -15.932712 29.133869 30.595302 -96.942750 -59.812023 -66.008663 -28.016482 29.497393 25.026221 0.000000 0.000000 0.000000 7.125000 0.000000 0.000000 1.764131 57.842679 -0.554679
-0.109052 21.802771 -10.752697 0.549609 5.613057 15.111256 0.000000 0.000000 0.000000 -14.832924 -1.083859 -27.350094 2.598017 10.010938 29.014881 2.908017 6.444464 30.991325 0.149630 2.491694 6.866647 0.000000 0.000000 0.000000 18.152779 -3.862310 -20.854092 -1.731924 -8.275657 23.559393 -0.508931 -21.759423 18.957611 -2.178036 -9.227391 26.509379 -3.621242 -1.533326 4.424673 2.316751 -2.158941 3.847122 4.484052 -1.192354 1.714281 -1.617928 -0.868697 -12.321015 1.052538 -1.116947 24.781781 0.509120 -0.544231 9.906189 0.000000 0.000000 0.000000 22.802354 42.897559 -50.662082 103.882055 -59.249630 71.991252 39.192399 -59.042522 14.498944 0.000000 0.000000 0.000000 -7.125000 0.000000 0.000000 7.753214 11.656476 6.084184 0.000000 0.000000 0.000000 -14.966788 28.493011 29.746480 -93.083149 -59.954057 -62.669488 -27.768427 29.431088 25.105538 0.000000 0.000000 0.000000 7.125000 0.000000 0.000000 2.069482 57.870648 -0.652142
